<?xml version="1.0" encoding="utf-8"?>
<!-- Generator: Adobe Illustrator 18.1.0, SVG Export Plug-In . SVG Version: 6.00 Build 0)  -->
<svg version="1.1" id="Karuna_Red" xmlns="http://www.w3.org/2000/svg" xmlns:xlink="http://www.w3.org/1999/xlink" x="0px" y="0px"
	 viewBox="0 0 453.5 453.5" enable-background="new 0 0 453.5 453.5" xml:space="preserve">
<rect x="-13.9" y="-40.2" fill="none" width="459.7" height="535.4"/>
<g>
	<g>
		<g>
			<path fill="#FFFFFF" d="M257.2,158.6L257.2,158.6C257.1,158.7,257.1,158.6,257.2,158.6L257.2,158.6L257.2,158.6z"/>
			<path fill="#FFFFFF" d="M313.9,110l0-0.2c-0.5-2.8-2.9-4.9-5.9-4.8c-9.2,0.3-18.4,1.8-27.1,4.8c-8.7,3-17,7.4-24.3,12.9
				c-0.1,0.1-0.1,0.1-0.2,0.2c-0.1-0.5-0.2-1.1-0.3-1.6c-2-8.9-5.5-17.6-10.2-25.5c-2.4-3.9-5-7.8-7.9-11.3c-2.9-3.6-6.1-7-9.5-10.1
				l-0.3-0.2c-2.1-1.8-5.3-1.7-7.5,0.2c-3,2.7-5.6,5.5-8.2,8.6c-2.5,2.9-4.8,6.1-7,9.3c-4.3,6.5-7.8,13.6-10.2,20.9
				c-1.1,3.1-1.9,6.3-2.6,9.5c-6.1-4.6-12.8-8.4-20-11.2c-5-2-10.2-3.5-15.5-4.6c-5.3-1-10.7-1.6-16.1-1.8c-2.8-0.1-5.4,1.9-5.8,4.7
				l-0.1,0.3c-0.1,2.3-0.1,4.6-0.1,6.9c0,1.1,0.1,2.3,0.2,3.4l0.1,1.7l0.2,1.6c0.2,2,1.8,3.8,4,4c2.5,0.3,4.7-1.5,5-4l0.2-1.6
				l0.2-1.5c0.2-1,0.3-2,0.5-3c0.1-0.3,0.1-0.6,0.2-0.8c3.2,0.1,6.4,0.3,9.5,0.8c4.7,0.7,9.3,1.8,13.8,3.4
				c7.9,2.8,15.3,7.1,21.9,12.4c-0.1,0.8-0.2,1.6-0.2,2.4c-0.6,7.7-0.2,15.4,0.8,22.9l0,0c0,0.2,0.1,0.3,0.1,0.5l0,0.1
				c0.6,3.5,2.5,6.8,5.4,9c2.9,2.3,6.8,3.3,10.5,2.8c3.7-0.5,7.2-2.5,9.4-5.5c2.3-2.9,3.3-6.9,2.7-10.5c-0.1-0.9-0.4-1.8-0.7-2.7
				c-0.3-0.9-0.7-1.7-1.2-2.6l-0.4-0.6l-0.3-0.4l-0.5-0.8l-1.1-1.6c-1.5-2.1-3.1-4.3-4.8-6.3c-3-3.7-6.2-7.2-9.7-10.5
				c0.8-4.5,2-9,3.6-13.3c2.4-6.5,5.6-12.6,9.7-18.2c2-2.8,4.2-5.4,6.6-8c1.1-1.2,2.3-2.4,3.6-3.5c1.7,1.6,3.3,3.2,4.9,5
				c2.7,3.1,5.2,6.2,7.5,9.6c4.4,6.8,7.8,14.3,9.9,22.2c0.5,2.1,1,4.2,1.4,6.3c-3.9,3.8-7.5,7.8-10.8,12.1c-1.4,1.8-2.7,3.6-3.9,5.5
				l-0.9,1.3l-0.3,0.4l-0.3,0.5c-0.2,0.3-0.4,0.7-0.5,1c-0.3,0.7-0.6,1.4-0.8,2.2c-0.1,0.4-0.2,0.8-0.3,1.3l-0.1,0.4l0,0.3l0,0.3
				c-0.3,3.1,0.4,6.3,2.1,9c1.7,2.7,4.3,4.8,7.4,5.7c3,0.9,6.4,0.7,9.3-0.6c2.9-1.3,5.3-3.6,6.7-6.4c0.4-0.7,0.6-1.4,0.9-2.2
				c0.1-0.4,0.2-0.7,0.3-1.2l0.1-0.6l0.1-0.3l0,0v0l0,0c0-0.1,0,0,0,0l0-0.1l0.1-0.4l0.1-0.4l0.1-0.8l0.2-1.7
				c0.3-2.2,0.5-4.5,0.6-6.7c0.3-4.9,0.2-9.8-0.2-14.8c1.4-1.1,2.8-2.2,4.2-3.2c6.7-4.7,14.1-8.2,21.8-10.5c6.3-1.8,12.8-2.8,19.3-3
				c0.5,2.2,0.9,4.5,1.1,6.8l0,0.1c0.2,2,1.9,3.7,4,4c2.5,0.3,4.7-1.5,5-4C314,119.2,314.2,114.6,313.9,110z M210,154.3L210,154.3
				L210,154.3C210,154.3,210,154.2,210,154.3z M203.8,146c1.6,1.9,3.1,3.8,4.5,5.8l1.1,1.5l0.5,0.8l0.2,0.3l0,0l0,0l0,0c0,0,0,0,0,0
				l0,0l0.1,0.2c0.1,0.2,0.3,0.5,0.4,0.8c0.1,0.3,0.2,0.6,0.2,1c0.2,1.4-0.1,2.7-0.9,3.8c-0.8,1.1-2,1.8-3.4,2
				c-1.3,0.2-2.7-0.2-3.8-1c-1.1-0.8-1.8-2.1-1.9-3.4c0-0.1,0-0.3-0.1-0.4c-0.7-5.3-1-10.6-0.8-15.8
				C201.3,143.1,202.5,144.6,203.8,146z M249.6,148c0,2.1-0.2,4.1-0.4,6.2l-0.2,1.6l-0.1,0.8l0,0.4l0,0.1v0l0,0.2l-0.1,0.4l0,0.2
				c0,0.1-0.1,0.3-0.1,0.4c-0.1,0.3-0.2,0.6-0.4,0.8c-0.6,1-1.6,1.8-2.7,2.2c-1.1,0.4-2.2,0.4-3.4,0.1c-1.1-0.3-2.1-0.9-2.8-1.9
				c-0.7-0.9-1.1-2.2-0.9-3.4l0-0.1c0,0,0,0.2,0,0.1l0-0.1l0-0.1l0.1-0.4c0-0.1,0-0.2,0.1-0.3c0.1-0.3,0.2-0.6,0.3-0.8
				c0.1-0.1,0.2-0.3,0.2-0.4l0.3-0.4l0.9-1.3c1.2-1.7,2.5-3.3,3.8-4.9c1.7-2.1,3.4-4,5.3-5.9C249.7,143.6,249.7,145.8,249.6,148z"/>
			<path fill="#FFFFFF" d="M308.1,135.7c-2.3-0.5-4.6,0.9-5.2,3.2c-4.1,17.8-14.4,33.8-28.4,45c-14,11.3-31.8,17.5-49.7,17.5
				c-17.9,0.1-35.7-6.1-49.8-17.3c-14.1-11.2-24.4-27.2-28.5-44.9c-0.5-2.2-2.7-3.7-5-3.3c-2.3,0.4-3.9,2.7-3.5,5l0,0
				c1.8,9.9,5.4,19.5,10.5,28.3c5.2,8.7,11.9,16.6,19.7,23.1c7.8,6.5,16.9,11.6,26.5,15.1c9.6,3.5,19.9,5.2,30.1,5.2
				c10.2,0,20.4-1.8,30.1-5.3c9.6-3.5,18.6-8.6,26.4-15.2c7.8-6.5,14.5-14.4,19.6-23.2c5.1-8.8,8.7-18.4,10.4-28.3l0-0.1
				C311.8,138.4,310.4,136.3,308.1,135.7z"/>
			<path fill="#FFFFFF" d="M143.8,97.3c2.2,0.9,4.7-0.2,5.6-2.4c6.2-15.3,15.4-25.9,28.8-35c1.6-1.1,3.2-2.1,4.9-3.1
				c2.8-1.6,4.1-5.2,2.8-8.1c-1.3-3-5.1-4-8.5-2c-2,1.2-3.9,2.5-5.8,3.9c-7.5,5.4-12.9,10.9-18.2,18.3c-5.3,7.4-9.4,14.4-12.1,23
				l0,0.1C140.7,94.2,141.7,96.5,143.8,97.3z"/>
			<path fill="#FFFFFF" d="M265.2,56.8c1.7,1,3.3,2,4.9,3.1c13.3,9.1,22.6,19.7,28.8,35c0.9,2.2,3.4,3.3,5.6,2.4
				c2.1-0.8,3.2-3.1,2.5-5.3l0-0.1c-2.6-8.6-6.7-15.6-12.1-23c-5.4-7.4-10.8-12.9-18.2-18.3c-1.9-1.4-3.8-2.7-5.8-3.9
				c-3.3-2-7.2-1-8.4,2C261.1,51.7,262.4,55.2,265.2,56.8z"/>
			<path fill="#FFFFFF" d="M203.7,47.5c6.8-1.9,13.9-2.8,21-2.8c7.1,0,14.1,0.9,20.9,2.8c4.3,1.2,8.9,0.1,10-2.9
				c2.2-5.7-3.6-7.6-3.6-7.6c-8.8-2.9-18.1-4.3-27.3-4.3c-9.2,0-18.5,1.5-27.3,4.3c0,0-5.8,2.5-3.7,7.7
				C194.9,47.6,199.4,48.7,203.7,47.5z"/>
		</g>
		<g>
			<path fill="#FFFFFF" d="M326.7,294.9c0.5,0,1-0.4,1-1c0-0.5-0.4-1-1-1h-5.5v-28.3c0-10.8-4.7-17.6-14.4-17.6
				c-7,0-11.6,4.2-13.8,7.4V248h-8.4h-1h-6.8c-0.5,0-1,0.4-1,1c0,0.5,0.4,1,1,1h5.6v38.2v4.9v0h-5.6c-0.5,0-1,0.4-1,1
				c0,0.5,0.4,1,1,1h20.8c0.5,0,1-0.4,1-1c0-0.5-0.4-1-1-1h-4.6v0h0v-31.4c0-5.5,4-11.1,9.9-11.1c4.6,0,7.6,2.8,7.6,7.9V293h-4.6
				c-0.5,0-1,0.4-1,1c0,0.5,0.4,1,1,1H326.7z"/>
			<path fill="#FFFFFF" d="M123.1,285.7c-0.1-0.1-0.3-0.1-0.4-0.1c-0.5,0-1,0.4-1,1c0,0.2,0,0.3,0,0.4c-0.2,2.1-1.8,3.6-3.9,3.6
				c-3.2,0-4.9-1.3-7.5-4.7l-10.5-13.6c8.6-3.4,20.5-3.5,20.5-14.8c0-6.1-5.2-10.7-13.9-10.7c-10.6,0-16.1,6.8-18,12.1v-31.4H72.1
				c-0.5,0-1,0.4-1,1c0,0.5,0.4,1,1,1h5.6V293v0h-5.6c-0.5,0-1,0.4-1,1c0,0.5,0.4,1,1,1H93c0.5,0,1-0.4,1-1c0-0.5-0.4-1-1-1h-4.6v0
				v-24.8c0-9,5.7-17.2,13.2-17.2c5.2,0,8.3,2.7,8.3,7.7c0,12.2-15.3,8.4-19.6,17.2l6.2,8.6c5.8,8.2,10.4,11.5,17.3,11.5
				c4.8,0,7.8-2.7,9-5.8c0,0,0,0,0-0.1c0-0.1,0.1-0.2,0.1-0.3c0.3-0.8,0.6-1.9,0.6-3.2C123.7,286.1,123.4,285.8,123.1,285.7"/>
			<path fill="#FFFFFF" d="M155.8,283.3c0,4.4-3.4,7.9-8.5,7.9c-4.5,0-7.8-2.9-7.8-7.8c0-10.6,10.5-11.2,16.3-16.9V283.3z
				 M174.7,286.9L174.7,286.9c0-0.5-0.4-0.8-0.9-0.8c-0.4,0-0.7,0.4-0.8,0.8h0c0,2.3-1.4,4.1-3.5,4.1c-2.2,0-3.1-1.4-3.1-4V264
				c0-10.9-6.7-17-18.3-17c-11.3,0-17.5,6.8-17.5,12.8c0,3.7,2.7,6.5,6.3,6.5c3.9,0,6.6-2.8,6.6-5.9c0-3.6-2.9-5.6-5.9-5.6
				c-0.6,0-0.8-0.3-0.8-0.6c0-2.1,3.7-4.8,9.4-4.8c7.1,0,10.7,3.1,10.7,8.8c0,17.3-28.1,8.5-28.1,26.2c0,7.4,6.4,11.7,13.5,11.7
				c7.4,0,12-4.7,14.1-7.6c1,4.8,4.3,7.6,9.4,7.6c6,0,8.4-4.3,8.8-7.9C174.7,287.5,174.7,287.2,174.7,286.9L174.7,286.9L174.7,286.9
				z"/>
			<path fill="#FFFFFF" d="M208.1,247.4c-8.2,0-12.9,6.7-14.5,11.3V248h-16.3c-0.5,0-1,0.4-1,1c0,0.5,0.4,1,1,1h5.7v43v0h-5.7
				c-0.5,0-1,0.4-1,1c0,0.5,0.4,1,1,1h22.3c0.5,0,1-0.4,1-1c0-0.5-0.4-1-1-1h-6l0,0v-24.2c0-11.7,6.8-19.4,14-19.4
				c3.7,0,5.2,2.1,5.2,3.4c0,0.3-0.2,0.6-0.8,0.6c-3.9,0-6.6,2.2-6.6,5.7c0,3.3,2.4,5.5,6,5.5c3.9,0,6.6-2.9,6.6-7.1
				C218.1,251.9,215.4,247.4,208.1,247.4"/>
			<path fill="#FFFFFF" d="M273.1,286.9L273.1,286.9c0-0.5-0.4-0.8-0.9-0.8c-0.4,0-0.7,0.4-0.8,0.8h-0.1c0,2.3-1.4,4.1-3.5,4.1
				c-2.1,0-3.1-1.4-3.1-4v-39h-16c-0.5,0-1,0.4-1,1c0,0.5,0.4,1,1,1h5.6v31.8c0,5.5-4.1,10.7-9.9,10.7c-4.6,0-7.6-2.7-7.6-7.8V248
				h-16.3c-0.5,0-1,0.4-1,1c0,0.5,0.4,1,1,1h5.6v28.3c0,10.8,4.6,17.7,14.5,17.7c7.5,0,11.9-4.3,14-7.4c1,4.8,4.5,7.4,9.3,7.4
				c6.1,0,8.6-4.3,9-7.8C273.1,287.6,273.1,287.2,273.1,286.9C273.1,287,273.1,286.9,273.1,286.9L273.1,286.9z"/>
			<path fill="#FFFFFF" d="M359.4,283.3c0,4.4-3.4,7.9-8.5,7.9c-4.5,0-7.8-2.9-7.8-7.8c0-10.6,10.6-11.2,16.3-16.9V283.3z
				 M378.2,286.9c0-0.5-0.4-0.8-0.9-0.7c-0.4,0-0.7,0.4-0.8,0.8c0,0,0,0,0,0.1v0v0c0,2.2-1.4,4-3.5,4c-2.2,0-3.1-1.4-3.1-4V264
				c0-10.9-6.7-17-18.3-17c-11.3,0-17.5,6.8-17.5,12.8c0,3.7,2.7,6.5,6.3,6.5c3.9,0,6.6-2.8,6.6-5.9c0-3.6-2.9-5.6-5.9-5.6
				c-0.6,0-0.8-0.3-0.8-0.6c0-2.1,3.7-4.8,9.4-4.8c7.1,0,10.7,3.1,10.7,8.8c0,17.3-28.1,8.5-28.1,26.2c0,7.4,6.3,11.7,13.5,11.7
				c7.4,0,12-4.7,14.1-7.6c1,4.8,4.3,7.6,9.4,7.6c5.9,0,8.4-4.2,8.8-7.8C378.2,287.4,378.2,286.9,378.2,286.9"/>
		</g>
		<g>
			<path fill="#FFFFFF" d="M370.5,319.4h2v10.5c0,2.4,1.2,3.3,3.5,3.3c0.9,0,1.7-0.1,2.2-0.2v-1h-1.7c-1.7,0-2.6-0.5-2.6-2.3v-10.4
				h4v-1.1h-4v-4.1h-1.4v4.1h-2V319.4z M363.6,319.9c0-1.5-0.1-1.6-0.8-1.6h-0.7v14.8h1.4v-10.9c1.2-1.4,2.8-2.8,4.9-2.8
				c0.3,0,0.6,0,0.6,0v-1.2c-0.1,0-0.3-0.1-0.7-0.1c-2.1,0-3.7,1.3-4.9,2.7V319.9z M352.3,332.1c-3.4,0-5.4-2.4-5.4-6.4
				c0-4,2.1-6.5,5.4-6.5c3.4,0,5.5,2.4,5.5,6.5C357.7,329.7,355.7,332.1,352.3,332.1 M352.3,333.2c4.2,0,6.9-2.8,6.9-7.5
				c0-4.7-2.8-7.6-6.9-7.6c-4.1,0-6.9,2.9-6.9,7.6C345.4,330.4,348.2,333.2,352.3,333.2 M337.6,319.3c2.1,0,4.5,1.3,4.5,6.3
				c0,5.1-2.7,6.4-5.2,6.4c-2.1,0-3.5-0.7-4.7-2v-7.7C333.4,320.8,335.2,319.3,337.6,319.3 M332.1,319.7c0-1.3-0.1-1.5-0.8-1.5h-0.7
				v19.5h1.4v-6.3c1.1,1,2.6,1.7,5,1.7c3.1,0,6.4-1.8,6.4-7.7c0-5.7-2.9-7.4-5.7-7.4c-2.6,0-4.5,1.5-5.6,2.8V319.7z M321.8,319.3
				c2.1,0,4.5,1.3,4.5,6.3c0,5.1-2.7,6.4-5.2,6.4c-2.1,0-3.5-0.7-4.7-2v-7.7C317.6,320.8,319.4,319.3,321.8,319.3 M316.4,319.7
				c0-1.3-0.1-1.5-0.8-1.5h-0.7v19.5h1.4v-6.3c1.1,1,2.6,1.7,5,1.7c3.1,0,6.4-1.8,6.4-7.7c0-5.7-2.9-7.4-5.7-7.4
				c-2.6,0-4.5,1.5-5.6,2.8V319.7z M309.3,331.5c0,1.4,0.1,1.6,0.8,1.6h0.7v-14.8h-1.4v11.5c-1.7,1.2-3.7,2.4-6,2.4
				c-1.6,0-2.8-0.6-2.8-2.8v-11h-1.5v11.1c0,2.9,1.7,3.9,4,3.9c2.3,0,4.5-1.1,6.2-2.3V331.5z M290.9,333.2c3.7,0,5.4-1.7,5.4-4.4
				c0-2.6-1.7-3.6-4.8-4c-2.9-0.5-3.9-1.1-3.9-2.8c0-1.8,1.3-2.7,3.7-2.7c1.9,0,2.9,0.5,3.7,1.2h0.6v-1.2c-0.8-0.5-2.1-1.1-4.3-1.1
				c-3,0-5,1.4-5,3.9c0,2.5,1.8,3.5,4.6,4c3,0.5,4,1.2,4,2.9c0,2.1-1.3,3.2-4,3.2c-2.1,0-3.4-0.8-4.2-1.5h-0.6v1.2
				C286.9,332.5,288.3,333.2,290.9,333.2 M272.4,333.2c2.6,0,4.2-1,5-1.8v-1.1h-0.7c-0.7,0.8-2,1.7-4.3,1.7c-3.5,0-5.6-2.4-5.6-6.4
				c0-4,2.3-6.4,5.6-6.4c2.1,0,3.2,0.7,3.9,1.4h0.7v-1.1c-0.9-0.7-2.2-1.4-4.6-1.4c-4.1,0-7,2.8-7,7.5
				C265.5,330.3,268.1,333.2,272.4,333.2 M261.7,316c0.5,0,1-0.4,1-1c0-0.5-0.4-1-1-1c-0.5,0-1,0.5-1,1
				C260.7,315.6,261.2,316,261.7,316 M262.4,333.1v-13.3c0-1.4-0.1-1.5-1-1.5H261v14.8H262.4z M250.7,319.4h2v10.5
				c0,2.4,1.2,3.3,3.5,3.3c0.9,0,1.7-0.1,2.2-0.2v-1h-1.7c-1.7,0-2.6-0.5-2.6-2.3v-10.4h4v-1.1h-4v-4.1h-1.4v4.1h-2V319.4z
				 M243.7,333.2c3.7,0,5.4-1.7,5.4-4.4c0-2.6-1.7-3.6-4.8-4c-2.9-0.5-3.9-1.1-3.9-2.8c0-1.8,1.3-2.7,3.7-2.7c1.9,0,2.9,0.5,3.7,1.2
				h0.6v-1.2c-0.8-0.5-2.1-1.1-4.3-1.1c-3,0-5,1.4-5,3.9c0,2.5,1.8,3.5,4.6,4c3,0.5,4,1.2,4,2.9c0,2.1-1.3,3.2-4,3.2
				c-2.1,0-3.4-0.8-4.2-1.5h-0.6v1.2C239.8,332.5,241.2,333.2,243.7,333.2 M235.1,316c0.5,0,1-0.4,1-1c0-0.5-0.4-1-1-1s-1,0.5-1,1
				C234.2,315.6,234.6,316,235.1,316 M235.8,333.1v-13.3c0-1.4-0.1-1.5-1-1.5h-0.5v14.8H235.8z M230.2,333.1v-18.6
				c0-1.2-0.1-1.4-0.9-1.4h-0.5v19.9H230.2z M218.8,332.1c-3.4,0-5.4-2.4-5.4-6.4c0-4,2.1-6.5,5.4-6.5c3.4,0,5.5,2.4,5.5,6.5
				C224.3,329.7,222.2,332.1,218.8,332.1 M218.8,333.2c4.2,0,6.9-2.8,6.9-7.5c0-4.7-2.8-7.6-6.9-7.6c-4.1,0-6.9,2.9-6.9,7.6
				C211.9,330.4,214.7,333.2,218.8,333.2 M198.7,314.5c0-1.2-0.1-1.4-0.9-1.4h-0.5v19.9h1.4v-11.3c1.7-1.3,3.8-2.5,6-2.5
				c1.7,0,3,0.6,3,2.9v10.9h1.4v-11.1c0-3.1-1.8-4-3.8-4c-2.6,0-4.8,1.2-6.5,2.5V314.5z M179.5,332.1c-2.2,0-4.6-1.4-4.6-6.4
				c0-5.2,2.6-6.6,5.1-6.6c2.2,0,3.6,0.8,4.7,2v7.9C183.5,330.8,181.9,332.1,179.5,332.1 M184.8,331.5c0,1.4,0.1,1.7,0.7,1.7h0.7
				v-18.6c0-1.2-0.1-1.4-1-1.4h-0.5v6.8c-1.1-1.1-2.6-1.9-5-1.9c-3,0-6.4,2-6.4,7.7c0,5.5,2.9,7.4,5.9,7.4c2.3,0,4.2-1.2,5.4-2.7
				V331.5z M165.6,319.2c2.8,0,4.6,1.5,4.7,5.5h-9.8C160.8,321,162.8,319.2,165.6,319.2 M160.4,325.7h11.2c0-0.1,0-0.4,0-0.7
				c0-4.8-2.5-7-6.1-7c-3.8,0-6.6,3-6.6,7.6c0,4.6,2.5,7.5,7,7.5c2.7,0,4.3-0.8,5.4-1.7v-1.1h-0.6c-0.8,0.8-2.3,1.5-4.6,1.5
				C162.4,332.1,160.4,329.9,160.4,325.7 M150.2,319.4h2v10.5c0,2.4,1.2,3.3,3.5,3.3c0.9,0,1.7-0.1,2.2-0.2v-1h-1.7
				c-1.7,0-2.6-0.5-2.6-2.3v-10.4h4v-1.1h-4v-4.1h-1.4v4.1h-2V319.4z M141.6,332.1c-2,0-3.5-0.9-3.5-3.3c0-2.3,2-3.2,4.6-3.2
				c1.4,0,2.7,0.2,3.8,0.5v3.6C145.3,331.1,144,332.1,141.6,332.1 M146.5,331.7c0,1.2,0.2,1.5,1,1.5h0.4v-10.8c0-3.1-2-4.2-5-4.2
				c-2.4,0-4.1,0.6-5.3,1.3v1.2h0.6c0.9-0.7,2.4-1.3,4.6-1.3c2.2,0,3.6,0.8,3.6,3.1v2.7c-1.2-0.3-2.5-0.5-3.9-0.5
				c-3.5,0-6,1.4-6,4.4c0,2.8,2,4.3,4.8,4.3c2.5,0,3.8-0.9,5.1-2.2V331.7z M129.9,333.2c2.6,0,4.2-1,5-1.8v-1.1h-0.7
				c-0.7,0.8-2,1.7-4.3,1.7c-3.5,0-5.6-2.4-5.6-6.4c0-4,2.2-6.4,5.6-6.4c2.1,0,3.2,0.7,3.9,1.4h0.7v-1.1c-0.9-0.7-2.2-1.4-4.6-1.4
				c-4.1,0-7,2.8-7,7.5C122.9,330.3,125.5,333.2,129.9,333.2 M119.2,316c0.5,0,1-0.4,1-1c0-0.5-0.4-1-1-1c-0.5,0-1,0.5-1,1
				C118.2,315.6,118.6,316,119.2,316 M119.9,333.1v-13.3c0-1.4-0.1-1.5-1-1.5h-0.5v14.8H119.9z M107.5,332.1c-2.2,0-4.6-1.4-4.6-6.4
				c0-5.2,2.6-6.6,5.1-6.6c2.2,0,3.6,0.8,4.7,2v7.9C111.5,330.8,109.9,332.1,107.5,332.1 M112.8,331.5c0,1.4,0.1,1.7,0.7,1.7h0.7
				v-18.6c0-1.2-0.1-1.4-1-1.4h-0.5v6.8c-1.1-1.1-2.6-1.9-5-1.9c-3,0-6.4,2-6.4,7.7c0,5.5,2.9,7.4,5.9,7.4c2.3,0,4.2-1.2,5.4-2.7
				V331.5z M93.5,319.2c2.8,0,4.6,1.5,4.7,5.5h-9.8C88.8,321,90.8,319.2,93.5,319.2 M88.4,325.7h11.2c0-0.1,0-0.4,0-0.7
				c0-4.8-2.5-7-6.1-7c-3.8,0-6.6,3-6.6,7.6c0,4.6,2.5,7.5,7,7.5c2.7,0,4.3-0.8,5.4-1.7v-1.1h-0.6c-0.8,0.8-2.2,1.5-4.6,1.5
				C90.3,332.1,88.4,329.9,88.4,325.7 M77.1,332.1c-2.2,0-4.6-1.4-4.6-6.4c0-5.2,2.6-6.6,5.1-6.6c2.2,0,3.6,0.8,4.7,2v7.9
				C81.2,330.8,79.6,332.1,77.1,332.1 M82.4,331.5c0,1.4,0.1,1.7,0.7,1.7h0.7v-18.6c0-1.2-0.1-1.4-1-1.4h-0.5v6.8
				c-1.1-1.1-2.6-1.9-5-1.9c-3,0-6.4,2-6.4,7.7c0,5.5,2.9,7.4,5.9,7.4c2.3,0,4.2-1.2,5.4-2.7V331.5z"/>
		</g>
		<g>
			<path fill="#FFFFFF" d="M73,360.2c25.5-0.9,50.9-1.3,76.3-1.6c25.4-0.3,50.9-0.4,76.3-0.2c50.9,0.3,101.7,1.4,152.5,3.4
				c1.6,0.1,2.9,1.2,2.8,2.6c-0.1,1.3-1.4,2.4-3.1,2.3c-50.7-1.5-101.5-2.1-152.3-1.9c-25.4,0.1-50.8,0.4-76.1,1
				c-25.4,0.5-50.8,1.3-76,2.4l0,0c-2.6,0.1-4.9-1.6-5-3.7C68.3,362.2,70.3,360.3,73,360.2C72.9,360.2,73,360.2,73,360.2"/>
		</g>
		<g>
			<g>
				<path fill="#FFFFFF" d="M133,405.2h-3.6l0.9-4.1c0,0,0-0.1,0-0.1c0,0-0.1-0.1-0.1-0.1h-1.7c-0.1,0-0.1,0-0.1,0.1l-1,4.1h-2
					c-0.1,0-0.1,0-0.1,0.1l-0.3,1.1c0,0,0,0.1,0,0.1c0,0,0.1,0,0.1,0h2l-2.4,10.2c-0.3,1.3-0.2,2.4,0.4,3.1c0.5,0.7,1.4,1,2.7,1
					c0.8,0,1.5-0.1,2.3-0.4c0,0,0.1,0,0.1-0.1l0.2-1.1c0,0,0-0.1,0-0.1c0,0-0.1,0-0.1,0h-0.8c0,0,0,0-0.1,0
					c-0.3,0.2-0.8,0.3-1.4,0.3c-0.5,0-0.9-0.1-1.2-0.4c-0.3-0.4-0.4-1.1-0.1-2.2l2.4-10.2h3.6c0.1,0,0.1,0,0.1-0.1l0.3-1.1
					C133.2,405.3,133.2,405.3,133,405.2C133.1,405.2,133.1,405.2,133,405.2"/>
				<path fill="#FFFFFF" d="M145,405.1c-2.8,0-5.5,1.9-6.9,3.2l1.8-7.6c0.1-0.2,0-0.4-0.1-0.5c-0.1-0.1-0.2-0.2-0.4-0.2h-3.4
					c-0.1,0-0.1,0-0.1,0.1l-0.3,1.1c0,0,0,0.1,0,0.1c0,0,0.1,0,0.1,0h1.4c0.2,0,0.3,0.1,0.3,0.2c0.1,0.1,0.2,0.3,0.1,0.5l-4.1,17.7
					c-0.1,0.4,0,0.7,0.1,0.8c0.1,0.1,0.3,0.2,0.4,0.2h1.1c0.1,0,0.1,0,0.1-0.1l2.5-10.8c1.4-1.2,4.1-3.2,6.7-3.2
					c0.6,0,1.1,0.2,1.4,0.5c0.3,0.4,0.4,1.1,0.2,2.1l-2,8.9c-0.2,0.8-0.1,1.5,0.3,2c0.3,0.4,0.9,0.7,1.6,0.7c0.6,0,1.2-0.1,1.6-0.3
					c0,0,0.1,0,0.1-0.1l0.2-0.9c0,0,0-0.1,0-0.1c0,0-0.1,0-0.1,0h-0.9c-0.3,0-0.5-0.1-0.7-0.3c-0.2-0.2-0.2-0.6-0.2-0.9l2.1-9
					c0.3-1.3,0.2-2.4-0.4-3.1C146.9,405.4,146.1,405.1,145,405.1"/>
				<path fill="#FFFFFF" d="M153,412.5c0.7-2.9,2.8-6.1,6.7-6.1c1.1,0,2.5,0.4,2.5,2.3C162.2,411.2,159.4,412.4,153,412.5
					 M159.7,405.1c-5,0-8.9,4.3-8.9,9.8c0,3.8,2.1,6,5.7,6c2.7,0,4.2-0.9,5.3-1.7c0,0,0,0,0-0.1l0.3-1.3c0,0,0-0.1,0-0.1
					c0,0-0.1,0-0.1,0h-1c0,0-0.1,0-0.1,0c-0.9,0.9-2,1.8-4.4,1.8c-3.3,0-3.8-2.9-3.8-4.6c0-0.3,0-0.7,0-1c7.7-0.1,11.3-1.8,11.3-5.3
					C164.1,406.4,162.5,405.1,159.7,405.1"/>
				<path fill="#FFFFFF" d="M185.5,405.2h-1.7c0,0-0.1,0-0.1,0.1c-1.3,2.8-4.7,5.9-8.8,7.9l2.9-12.5c0.1-0.2,0-0.4-0.1-0.5
					c-0.1-0.1-0.2-0.2-0.4-0.2h-3.4c-0.1,0-0.1,0-0.1,0.1l-0.3,1.1c0,0,0,0.1,0,0.1c0,0,0.1,0,0.1,0h1.4c0.2,0,0.3,0.1,0.4,0.2
					c0.1,0.1,0.2,0.3,0.1,0.5l-4.1,17.7c-0.1,0.4,0,0.6,0.1,0.8c0.1,0.1,0.3,0.2,0.5,0.2h1.1c0.1,0,0.1,0,0.1-0.1l1.3-5.7
					c1-0.5,2.1-1,3.3-1.8l2.3,5.8c0.5,1.2,1,1.9,2.2,1.9c0.9,0,1.4-0.3,1.5-0.4c0,0,0,0,0-0.1l0.2-0.8c0,0,0-0.1,0-0.1
					c0,0-0.1,0-0.1,0h-0.8c-0.6,0-1.1-0.5-1.4-1.2l-2.5-6.1c2.5-1.8,4.6-3.8,6.1-5.9c0,0,0,0,0,0l0.2-0.9
					C185.6,405.3,185.6,405.3,185.5,405.2C185.6,405.2,185.5,405.2,185.5,405.2"/>
				<path fill="#FFFFFF" d="M189.7,405.1c-0.8,0-1.5,0.2-1.8,0.3l-0.1,0c0,0-0.1,0-0.1,0.1l-0.2,0.9c0,0,0,0.1,0,0.1
					c0,0,0.1,0,0.1,0h1.2c0.3,0,0.5,0.1,0.7,0.3c0.2,0.2,0.2,0.5,0.1,0.9l-2.4,10.4c-0.2,0.9-0.1,1.6,0.3,2c0.4,0.4,0.9,0.7,1.7,0.7
					c0.7,0,1.2-0.1,1.6-0.3c0,0,0.1,0,0.1-0.1l0.2-0.9c0,0,0-0.1,0-0.1c0,0-0.1,0-0.1,0H190c-0.3,0-0.6-0.1-0.7-0.4
					c-0.2-0.2-0.2-0.5-0.2-0.8l2.4-10.5c0.2-0.9,0.1-1.6-0.2-2.1C191,405.3,190.4,405.1,189.7,405.1"/>
				<path fill="#FFFFFF" d="M191.8,400.8c-0.7,0-1.3,0.6-1.3,1.3c0,0.7,0.5,1.2,1.2,1.2c0.6,0,1.3-0.6,1.3-1.3
					C193.1,401.3,192.5,400.8,191.8,400.8"/>
				<path fill="#FFFFFF" d="M206,405.1c-2.8,0-5.5,1.9-6.9,3.2l0.1-0.4c0.2-0.9,0.1-1.6-0.3-2.1c-0.3-0.4-0.9-0.7-1.6-0.7
					c-0.7,0-1.5,0.2-1.8,0.3l0,0c0,0-0.1,0-0.1,0.1l-0.2,0.9c0,0,0,0.1,0,0.1c0,0,0.1,0,0.1,0h1.1c0.3,0,0.6,0.1,0.7,0.3
					c0.2,0.2,0.2,0.5,0.1,0.9l-2.8,12c-0.1,0.4,0,0.7,0.1,0.8c0.1,0.1,0.3,0.2,0.4,0.2h1.1c0.1,0,0.1,0,0.1-0.1l2.5-10.8
					c1.4-1.2,4.1-3.2,6.7-3.2c0.6,0,1.1,0.2,1.3,0.5c0.3,0.4,0.4,1.1,0.2,2.1l-2,8.9c-0.2,0.8-0.1,1.5,0.3,2
					c0.3,0.4,0.9,0.7,1.6,0.7c0.9,0,1.4-0.2,1.6-0.3c0,0,0.1,0,0.1-0.1l0.2-0.9c0,0,0-0.1,0-0.1c0,0-0.1,0-0.1,0h-0.9
					c-0.3,0-0.5-0.1-0.7-0.3c-0.2-0.2-0.2-0.6-0.2-0.9l2.1-9c0.3-1.3,0.2-2.4-0.4-3.1C208,405.4,207.1,405.1,206,405.1"/>
				<path fill="#FFFFFF" d="M224.6,407.7l-1.9,8.1c-1.7,1.8-3.7,3.6-6.1,3.6c-1.9,0-2.9-1.3-2.9-3.7c0-2.8,1-5.6,2.6-7.3
					c1.3-1.3,2.7-2,4.4-2C222.8,406.5,223.8,407.2,224.6,407.7 M227.7,400h-3.8c-0.1,0-0.1,0-0.1,0.1l-0.3,1.1c0,0,0,0.1,0,0.1
					c0,0,0.1,0,0.1,0h2.4l-1.2,5.1c-0.8-0.7-2.1-1.4-4.2-1.4c-2.1,0-4.2,0.9-5.7,2.5c-1.9,2-3.2,5.2-3.2,8.2c0,3.3,1.7,5.1,4.7,5.1
					c2.6,0,4.6-1.6,5.8-3l-0.1,0.4c-0.2,0.7-0.1,1.4,0.3,1.8c0.4,0.5,1,0.7,1.8,0.7c0.7,0,1.2-0.2,1.4-0.3c0,0,0.1,0,0.1-0.1
					l0.2-0.9c0,0,0-0.1,0-0.1c0,0-0.1,0-0.1,0H225c-0.3,0-0.5-0.1-0.7-0.3c-0.2-0.2-0.2-0.5-0.2-0.8l4.1-17.6c0.1-0.3,0-0.4-0.1-0.5
					C228.1,400.1,227.9,400,227.7,400"/>
				<path fill="#FFFFFF" d="M231.3,412.5c0.7-2.9,2.8-6.1,6.7-6.1c1.1,0,2.5,0.4,2.5,2.3C240.5,411.2,237.8,412.4,231.3,412.5
					 M238.1,405.1c-5,0-8.9,4.3-8.9,9.8c0,3.8,2.1,6,5.7,6c2.7,0,4.2-0.9,5.3-1.7c0,0,0,0,0-0.1l0.3-1.3c0,0,0-0.1,0-0.1
					c0,0-0.1,0-0.1,0h-1c0,0-0.1,0-0.1,0c-0.9,0.9-2,1.8-4.4,1.8c-3.3,0-3.8-2.9-3.8-4.6c0-0.3,0-0.7,0-1c7.7-0.1,11.3-1.8,11.3-5.3
					C242.4,406.4,240.8,405.1,238.1,405.1"/>
				<path fill="#FFFFFF" d="M250.8,405.1c-3.5,0-5.7,1.7-5.7,4.5c0,2.1,1.2,3,3.6,4l0,0c1.9,0.8,3.1,1.3,3.1,2.8
					c0,2-1.6,3.2-4.2,3.2c-1.3,0-2.2-0.1-2.8-0.7c-0.3-0.3-0.4-0.9-0.3-1.9c0,0,0-0.1,0-0.1c0,0,0,0-0.1,0h-1.1
					c-0.1,0-0.1,0-0.1,0.1l-0.6,2.6c0,0.1,0,0.1,0.1,0.1c1.3,0.7,2.7,1.2,5.1,1.2c3.6,0,5.9-1.9,5.9-4.7c0-2.4-1.6-3.3-3.8-4.1
					c-1.9-0.7-3-1.3-3-2.7c0-1.8,1.3-2.8,3.8-2.8c1.3,0,1.9,0.1,2.4,0.5c0.3,0.3,0.4,0.8,0.4,1.7c0,0,0,0.1,0,0.1c0,0,0.1,0,0.1,0
					h1.1c0,0,0.1,0,0.1-0.1l0.6-2.5c0-0.1,0-0.1-0.1-0.1C254.1,405.5,253,405.1,250.8,405.1"/>
				<path fill="#FFFFFF" d="M265.4,405.2h-3.6l0.9-4.1c0,0,0-0.1,0-0.1c0,0-0.1-0.1-0.1-0.1H261c-0.1,0-0.1,0-0.1,0.1l-1,4.1h-2
					c-0.1,0-0.1,0-0.1,0.1l-0.3,1.1c0,0,0,0.1,0,0.1c0,0,0.1,0,0.1,0h2l-2.4,10.2c-0.3,1.3-0.2,2.4,0.4,3.1c0.5,0.7,1.4,1,2.7,1
					c0.8,0,1.5-0.1,2.3-0.4c0,0,0.1,0,0.1-0.1l0.2-1.1c0,0,0-0.1,0-0.1c0,0-0.1,0-0.1,0H262c0,0,0,0-0.1,0c-0.3,0.2-0.8,0.3-1.4,0.3
					c-0.6,0-0.9-0.1-1.2-0.4c-0.3-0.4-0.4-1.1-0.1-2.2l2.3-10.2h3.6c0.1,0,0.1,0,0.1-0.1l0.3-1.1
					C265.6,405.3,265.6,405.3,265.4,405.2C265.5,405.2,265.5,405.2,265.4,405.2"/>
				<path fill="#FFFFFF" d="M280.8,405.1c-5.3,0-9.3,4.3-9.3,9.9c0,3.7,2.2,5.9,5.8,5.9c2.9,0,4.5-1.1,5.2-1.7c0,0,0,0,0-0.1
					l0.3-1.3c0,0,0-0.1,0-0.1c0,0-0.1,0-0.1,0h-1c0,0-0.1,0-0.1,0c-0.8,0.9-1.9,1.8-4.4,1.8c-3.2,0-3.9-2.4-3.9-4.5
					c0-4.2,2.5-8.5,7.2-8.5c0.8,0,1.3,0.1,1.7,0.3c0.8,0.3,0.9,0.9,0.8,2.1c0,0,0,0.1,0,0.1c0,0,0.1,0,0.1,0h1.1
					c0.1,0,0.1,0,0.1-0.1l0.6-2.8c0-0.1,0-0.1-0.1-0.1C284.3,405.6,283.1,405.1,280.8,405.1"/>
				<path fill="#FFFFFF" d="M292.3,413.1c1.3,0,2.4,0.2,3.5,0.7l-0.7,3.1c-1.5,1.8-3,2.6-4.8,2.6c-1.7,0-2.7-1-2.7-2.6
					C287.6,413.8,290.1,413.1,292.3,413.1 M298.6,410.1c0.3-1.4,0.1-2.6-0.6-3.5c-0.8-1-2.2-1.5-4-1.5c-2.4,0-3.9,0.5-5.3,1.1
					c0,0-0.1,0-0.1,0.1l-0.3,1.4c0,0,0,0.1,0,0.1c0,0,0.1,0,0.1,0h0.9c0,0,0.1,0,0.1,0c1-0.8,2.2-1.3,4.4-1.3c1.2,0,2.1,0.3,2.6,1
					c0.5,0.6,0.6,1.5,0.3,2.5l-0.6,2.4c-1.2-0.5-2.3-0.7-3.8-0.7c-4.2,0-6.6,1.9-6.6,5.3c0,2.3,1.7,3.9,4.3,3.9
					c1.8,0,3.3-0.7,4.7-2.2c-0.1,0.6,0.1,1.1,0.4,1.5c0.4,0.5,1,0.7,1.7,0.7c0.6,0,1.2-0.2,1.5-0.3c0,0,0.1,0,0.1-0.1l0.2-0.9
					c0,0,0-0.1,0-0.1c0,0-0.1,0-0.1,0c-0.3,0.1-0.6,0.1-0.9,0.1c-0.3,0-0.6-0.1-0.7-0.3c-0.2-0.2-0.2-0.5-0.1-0.9L298.6,410.1z"/>
				<path fill="#FFFFFF" d="M311.9,406.8l0.3-1.4c0-0.1,0-0.1-0.1-0.1c-0.1,0-0.4-0.1-0.8-0.1c-2.2,0-4,1.6-5.2,3.1l0-0.2
					c0.2-1,0.2-1.7-0.3-2.2c-0.3-0.4-0.9-0.7-1.6-0.7c-0.7,0-1.6,0.2-1.8,0.3c0,0-0.1,0-0.1,0.1l-0.2,0.9c0,0,0,0.1,0,0.1
					c0,0,0.1,0,0.1,0h1.1c0.3,0,0.5,0.1,0.7,0.3c0.2,0.2,0.2,0.5,0.1,0.9l-2.8,12c-0.1,0.4,0,0.7,0.1,0.8c0.1,0.1,0.3,0.2,0.5,0.2
					h1.1c0.1,0,0.1,0,0.1-0.1l2.4-10.5c1.8-2,3.4-3.3,5.4-3.3c0.3,0,0.6,0,0.6,0C311.8,406.9,311.9,406.8,311.9,406.8"/>
				<path fill="#FFFFFF" d="M320.2,406.4c1.1,0,2.5,0.4,2.5,2.3c0,2.6-2.8,3.7-9.2,3.9C314.2,409.7,316.3,406.4,320.2,406.4
					 M324.6,408.6c0-2.3-1.6-3.5-4.4-3.5c-5,0-8.9,4.3-8.9,9.8c0,3.8,2.1,6,5.7,6c2.7,0,4.2-0.9,5.3-1.7c0,0,0,0,0-0.1l0.3-1.3
					c0,0,0-0.1,0-0.1c0,0-0.1,0-0.1,0h-1c0,0-0.1,0-0.1,0c-0.9,0.9-2,1.8-4.4,1.8c-3.3,0-3.8-2.9-3.8-4.6c0-0.3,0-0.7,0.1-1
					C321,413.8,324.6,412.1,324.6,408.6"/>
			</g>
		</g>
	</g>
	<g>
		<path fill="#FFFFFF" d="M384.5,288.7c0-4.6,3.4-7.2,7.3-7.2c3.8,0,7.3,2.6,7.3,7.2c0,4.5-3.5,7.2-7.3,7.2
			C388,295.9,384.5,293.2,384.5,288.7z M397.7,288.7c0-3.9-2.6-6-5.9-6s-5.9,2-5.9,6c0,3.9,2.6,6,5.9,6S397.7,292.6,397.7,288.7z
			 M392,289.4h-1.3v3h-1.6v-7.7h3c2,0,2.8,0.8,2.8,2.3c0,1-0.5,1.8-1.4,2.1l1.6,2.6v0.6h-1.4L392,289.4z M393.4,287
			c0-0.7-0.4-1.2-1.4-1.2h-1.3v2.5h1.3C393,288.3,393.4,287.8,393.4,287z"/>
	</g>
</g>
</svg>
